<svg width="99" height="42" viewBox="0 0 99 42" fill="none" xmlns="http://www.w3.org/2000/svg">
<path d="M9.032 5.768L9.992 5.736C13.64 5.75733 16.4773 6.45067 18.504 7.816C20.5307 9.18133 21.544 11.1227 21.544 13.64C21.544 16.1573 20.7333 18.1307 19.112 19.56C17.4907 20.968 15.3467 21.672 12.68 21.672C11.464 21.672 10.2907 21.448 9.16 21V25.736C9.16 28.232 8.85067 30.0773 8.232 31.272C7.61333 32.488 6.55733 33.096 5.064 33.096C4.25333 33.096 3.624 32.7547 3.176 32.072C2.728 31.3893 2.504 30.4187 2.504 29.16C2.504 26.8347 3.72 24.488 6.152 22.12V8.296C5.21333 8.72267 4.456 9.23467 3.88 9.832C3.304 10.408 3.016 10.9627 3.016 11.496C3.016 12.0293 3.08 12.488 3.208 12.872C3.08 13.128 2.792 13.256 2.344 13.256C1.896 13.256 1.512 13.096 1.192 12.776C0.872 12.456 0.712 12.0293 0.712 11.496C0.712 10.4933 1.21333 9.50133 2.216 8.52C3.21867 7.53867 4.53067 6.80267 6.152 6.312V5.096C6.152 4.456 6.312 3.976 6.632 3.656C6.952 3.31467 7.34667 3.144 7.816 3.144C8.28533 3.144 8.69067 3.29333 9.032 3.592V5.768ZM12.424 20.008C14.4507 20.008 15.9653 19.4747 16.968 18.408C17.9707 17.32 18.472 15.7733 18.472 13.768C18.472 11.7413 17.736 10.1627 16.264 9.032C14.8133 7.88 12.7333 7.304 10.024 7.304C9.68267 7.304 9.384 7.336 9.128 7.4V19.304C10.216 19.7733 11.3147 20.008 12.424 20.008ZM5.032 31.848C5.48 31.848 5.77867 31.3253 5.928 30.28C6.07733 29.2347 6.152 27.016 6.152 23.624C4.63733 25.48 3.88 27.3147 3.88 29.128C3.88 30.9413 4.264 31.848 5.032 31.848ZM22.1303 11.4C21.7676 11.0373 21.5862 10.5893 21.5862 10.056C21.5862 9.52267 21.7676 9.07467 22.1303 8.712C22.4929 8.328 22.9409 8.136 23.4743 8.136C24.0076 8.136 24.4556 8.328 24.8183 8.712C25.2023 9.07467 25.3943 9.52267 25.3943 10.056C25.3943 10.5893 25.2023 11.0373 24.8183 11.4C24.4556 11.7627 24.0076 11.944 23.4743 11.944C22.9409 11.944 22.4929 11.7627 22.1303 11.4ZM22.0023 16.488C22.0023 15.848 22.1623 15.368 22.4823 15.048C22.8023 14.7067 23.2076 14.536 23.6983 14.536C24.1889 14.536 24.5836 14.6853 24.8823 14.984V24.168C24.8823 25.384 25.1169 26.3013 25.5863 26.92C26.0556 27.5387 26.6956 27.848 27.5063 27.848C28.3169 27.848 29.0743 27.3573 29.7783 26.376C30.4823 25.3947 30.8343 23.8053 30.8343 21.608C30.8769 21.48 31.0369 21.416 31.3142 21.416C31.6983 21.416 31.8903 21.9813 31.8903 23.112C31.8903 24.7547 31.4423 26.1627 30.5463 27.336C29.6503 28.5093 28.5089 29.096 27.1223 29.096C25.3943 29.096 24.1036 28.584 23.2503 27.56C22.4183 26.536 22.0023 25.0853 22.0023 23.208V16.488ZM48.2183 21.416C48.6023 21.416 48.7943 21.9813 48.7943 23.112C48.7943 24.9253 48.3996 26.376 47.6103 27.464C46.8423 28.552 45.7116 29.096 44.2183 29.096C42.7249 29.096 41.5729 28.584 40.7623 27.56C39.9729 26.536 39.5783 25.0853 39.5783 23.208V19.464C39.5783 16.9253 38.9383 15.656 37.6583 15.656C36.5276 15.656 35.5996 16.232 34.8743 17.384C34.1489 18.536 33.7863 20.4667 33.7863 23.176V28.648C33.5729 28.9467 33.1996 29.096 32.6663 29.096C32.1329 29.096 31.7063 28.936 31.3863 28.616C31.0663 28.2747 30.9062 27.784 30.9062 27.144V14.984C31.1196 14.6853 31.5249 14.536 32.1223 14.536C33.2316 14.536 33.7863 15.336 33.7863 16.936C34.6823 15.336 36.1009 14.536 38.0423 14.536C39.4289 14.536 40.5276 14.9733 41.3383 15.848C42.1703 16.7227 42.5863 17.9813 42.5863 19.624V24.168C42.5863 25.384 42.7783 26.3013 43.1623 26.92C43.5463 27.5387 44.1116 27.848 44.8583 27.848C45.6263 27.848 46.2983 27.3787 46.8743 26.44C47.4503 25.48 47.7383 23.8693 47.7383 21.608C47.7596 21.48 47.9196 21.416 48.2183 21.416ZM64.9005 21.416C65.2845 21.416 65.4765 21.9813 65.4765 23.112C65.4765 24.8827 65.0712 26.3227 64.2605 27.432C63.4498 28.5413 62.3298 29.096 60.9005 29.096C59.4712 29.096 58.2552 28.6267 57.2525 27.688C56.2498 26.728 55.6205 25.576 55.3645 24.232C53.9352 24.8293 52.3885 25.1707 50.7245 25.256V28.648C50.5112 28.9467 50.1378 29.096 49.6045 29.096C49.0712 29.096 48.6445 28.936 48.3245 28.616C48.0045 28.2747 47.8445 27.784 47.8445 27.144V11.112C47.8445 8.33867 48.1112 6.33333 48.6445 5.096C49.1778 3.83733 50.2018 3.208 51.7165 3.208C52.5272 3.208 53.1565 3.54933 53.6045 4.232C54.0525 4.91467 54.2765 5.88533 54.2765 7.144C54.2765 9.42667 53.0925 11.752 50.7245 14.12V17.192C51.6845 15.4213 53.2205 14.536 55.3325 14.536C56.6765 14.536 57.7538 14.888 58.5645 15.592C59.3965 16.296 59.8125 17.256 59.8125 18.472C59.8125 20.1147 59.1085 21.5547 57.7005 22.792C57.8072 24.0933 58.2018 25.2667 58.8845 26.312C59.5672 27.336 60.4312 27.848 61.4765 27.848C62.2872 27.848 62.9805 27.3467 63.5565 26.344C64.1325 25.32 64.4205 23.7413 64.4205 21.608C64.4418 21.48 64.6018 21.416 64.9005 21.416ZM56.9965 18.504C56.9965 17.608 56.8045 16.9147 56.4205 16.424C56.0365 15.912 55.5458 15.656 54.9485 15.656C53.7752 15.656 52.7725 16.2853 51.9405 17.544C51.1298 18.8027 50.7245 20.9573 50.7245 24.008C52.5592 23.816 54.0632 23.1867 55.2365 22.12C56.4098 21.032 56.9965 19.8267 56.9965 18.504ZM50.7245 12.584C52.1752 10.7067 52.9005 8.88267 52.9005 7.112C52.9005 5.34133 52.5165 4.456 51.7485 4.456C51.3218 4.456 51.0445 4.94667 50.9165 5.928C50.7885 6.90933 50.7245 9.128 50.7245 12.584ZM64.5 16.488C64.5 15.848 64.66 15.368 64.98 15.048C65.3 14.7067 65.7053 14.536 66.196 14.536C66.6867 14.536 67.0813 14.6853 67.38 14.984V24.168C67.38 26.7067 68.02 27.976 69.3 27.976C70.452 27.976 71.3907 27.368 72.116 26.152C72.8627 24.936 73.236 22.888 73.236 20.008V16.488C73.236 15.848 73.396 15.368 73.716 15.048C74.036 14.7067 74.4413 14.536 74.932 14.536C75.4227 14.536 75.8173 14.6853 76.116 14.984V31.24C76.372 31.2187 76.7773 31.208 77.332 31.208C77.8867 31.208 78.164 31.4427 78.164 31.912L77.972 32.392C77.1613 32.392 76.5427 32.4027 76.116 32.424V34.024C76.116 36.2213 75.6147 37.9493 74.612 39.208C73.6307 40.488 72.308 41.128 70.644 41.128C69.6627 41.128 68.788 40.8293 68.02 40.232C67.2733 39.656 66.9 38.7387 66.9 37.48C66.9 35.8587 67.476 34.568 68.628 33.608C69.78 32.648 71.316 31.976 73.236 31.592V26.6C72.34 28.264 70.9 29.096 68.916 29.096C67.5507 29.096 66.4733 28.6587 65.684 27.784C64.8947 26.9093 64.5 25.6507 64.5 24.008V16.488ZM68.532 37.576C68.532 38.3227 68.7347 38.888 69.14 39.272C69.5453 39.6773 70.036 39.88 70.612 39.88C71.188 39.88 71.6573 39.7093 72.02 39.368C72.8307 38.6427 73.236 36.456 73.236 32.808C70.1 33.512 68.532 35.1013 68.532 37.576ZM82.9098 7.528C82.6324 7.528 82.3871 7.47467 82.1738 7.368C81.9818 7.24 81.8858 7.08 81.8858 6.888C81.8858 6.67467 81.9604 6.51467 82.1098 6.408C82.7071 6.408 83.1764 6.216 83.5178 5.832C83.8591 5.42667 84.0298 4.98933 84.0298 4.52C84.0298 4.02933 83.9978 3.656 83.9338 3.4C83.6564 3.784 83.2724 3.976 82.7818 3.976C82.3124 3.976 81.9284 3.82666 81.6298 3.528C81.3524 3.22933 81.2138 2.87733 81.2138 2.472C81.2138 2.04533 81.3631 1.68267 81.6618 1.384C81.9604 1.08533 82.3231 0.935999 82.7498 0.935999C83.5178 0.935999 84.1364 1.20267 84.6058 1.736C85.0751 2.26933 85.3098 3.048 85.3098 4.072C85.3098 5.07467 85.0751 5.90667 84.6058 6.568C84.1364 7.208 83.5711 7.528 82.9098 7.528ZM92.3575 22.568C91.5042 22.2693 90.6508 21.96 89.7975 21.64C88.9655 21.2987 88.2615 20.8187 87.6855 20.2C87.1095 19.5813 86.8215 18.792 86.8215 17.832C86.8215 16.8507 87.2695 16.0613 88.1655 15.464C89.0615 14.8453 90.3628 14.536 92.0695 14.536C93.7975 14.536 95.1415 14.8347 96.1015 15.432C97.0828 16.0293 97.5735 16.7227 97.5735 17.512C97.5735 17.896 97.4242 18.2053 97.1255 18.44C96.8482 18.6747 96.5708 18.792 96.2935 18.792C95.7602 18.792 95.4082 18.664 95.2375 18.408C95.3655 18.2587 95.4295 17.9707 95.4295 17.544C95.4295 17.096 95.0988 16.6907 94.4375 16.328C93.7762 15.9653 93.0402 15.784 92.2295 15.784C91.4188 15.784 90.7468 15.9333 90.2135 16.232C89.6802 16.5307 89.4135 16.9893 89.4135 17.608C89.4135 18.2053 89.7122 18.728 90.3095 19.176C90.9282 19.624 91.6642 19.9973 92.5175 20.296C93.3922 20.5947 94.2562 20.9147 95.1095 21.256C95.9842 21.5973 96.7202 22.088 97.3175 22.728C97.9362 23.3467 98.2455 24.1147 98.2455 25.032C98.2455 26.3973 97.6482 27.4213 96.4535 28.104C95.2802 28.7653 93.7228 29.096 91.7815 29.096C89.8615 29.096 88.2935 28.5413 87.0775 27.432C85.8828 26.3013 85.2855 24.904 85.2855 23.24C85.2855 22.6427 85.4028 22.1733 85.6375 21.832C85.8722 21.4907 86.1388 21.32 86.4375 21.32C86.9922 21.32 87.3122 21.416 87.3975 21.608L87.4615 21.704C87.3335 22.024 87.2695 22.4187 87.2695 22.888C87.2695 24.3173 87.6855 25.5013 88.5175 26.44C89.3495 27.3787 90.5015 27.848 91.9735 27.848C94.2348 27.848 95.3762 27.048 95.3975 25.448C95.3975 24.232 94.3842 23.272 92.3575 22.568Z" fill="#FFF7F2"/>
</svg>
