<svg width="76" height="38" viewBox="0 0 76 38" fill="none" xmlns="http://www.w3.org/2000/svg">
<path d="M7.024 9.576L7.744 9.552C10.48 9.568 12.608 10.088 14.128 11.112C15.648 12.136 16.408 13.592 16.408 15.48C16.408 17.368 15.8 18.848 14.584 19.92C13.368 20.976 11.76 21.504 9.76 21.504C8.848 21.504 7.968 21.336 7.12 21V24.552C7.12 26.424 6.888 27.808 6.424 28.704C5.96 29.616 5.168 30.072 4.048 30.072C3.44 30.072 2.968 29.816 2.632 29.304C2.296 28.792 2.128 28.064 2.128 27.12C2.128 25.376 3.04 23.616 4.864 21.84V11.472C4.16 11.792 3.592 12.176 3.16 12.624C2.728 13.056 2.512 13.472 2.512 13.872C2.512 14.272 2.56 14.616 2.656 14.904C2.56 15.096 2.344 15.192 2.008 15.192C1.672 15.192 1.384 15.072 1.144 14.832C0.904 14.592 0.784 14.272 0.784 13.872C0.784 13.12 1.16 12.376 1.912 11.64C2.664 10.904 3.648 10.352 4.864 9.984V9.072C4.864 8.592 4.984 8.232 5.224 7.992C5.464 7.736 5.76 7.608 6.112 7.608C6.464 7.608 6.768 7.72 7.024 7.944V9.576ZM9.568 20.256C11.088 20.256 12.224 19.856 12.976 19.056C13.728 18.24 14.104 17.08 14.104 15.576C14.104 14.056 13.552 12.872 12.448 12.024C11.36 11.16 9.8 10.728 7.768 10.728C7.512 10.728 7.288 10.752 7.096 10.8V19.728C7.912 20.08 8.736 20.256 9.568 20.256ZM4.024 29.136C4.36 29.136 4.584 28.744 4.696 27.96C4.808 27.176 4.864 25.512 4.864 22.968C3.728 24.36 3.16 25.736 3.16 27.096C3.16 28.456 3.448 29.136 4.024 29.136ZM16.8477 13.8C16.5757 13.528 16.4397 13.192 16.4397 12.792C16.4397 12.392 16.5757 12.056 16.8477 11.784C17.1197 11.496 17.4557 11.352 17.8557 11.352C18.2557 11.352 18.5917 11.496 18.8637 11.784C19.1517 12.056 19.2957 12.392 19.2957 12.792C19.2957 13.192 19.1517 13.528 18.8637 13.8C18.5917 14.072 18.2557 14.208 17.8557 14.208C17.4557 14.208 17.1197 14.072 16.8477 13.8ZM16.7517 17.616C16.7517 17.136 16.8717 16.776 17.1117 16.536C17.3517 16.28 17.6557 16.152 18.0237 16.152C18.3917 16.152 18.6877 16.264 18.9117 16.488V23.376C18.9117 24.288 19.0877 24.976 19.4397 25.44C19.7917 25.904 20.2717 26.136 20.8797 26.136C21.4877 26.136 22.0557 25.768 22.5837 25.032C23.1117 24.296 23.3757 23.104 23.3757 21.456C23.4077 21.36 23.5277 21.312 23.7357 21.312C24.0237 21.312 24.1677 21.736 24.1677 22.584C24.1677 23.816 23.8317 24.872 23.1597 25.752C22.4877 26.632 21.6317 27.072 20.5917 27.072C19.2957 27.072 18.3277 26.688 17.6877 25.92C17.0637 25.152 16.7517 24.064 16.7517 22.656V17.616ZM36.4137 21.312C36.7017 21.312 36.8457 21.736 36.8457 22.584C36.8457 23.944 36.5497 25.032 35.9577 25.848C35.3817 26.664 34.5337 27.072 33.4137 27.072C32.2937 27.072 31.4297 26.688 30.8217 25.92C30.2297 25.152 29.9337 24.064 29.9337 22.656V19.848C29.9337 17.944 29.4537 16.992 28.4937 16.992C27.6457 16.992 26.9497 17.424 26.4057 18.288C25.8617 19.152 25.5897 20.6 25.5897 22.632V26.736C25.4297 26.96 25.1497 27.072 24.7497 27.072C24.3497 27.072 24.0297 26.952 23.7897 26.712C23.5497 26.456 23.4297 26.088 23.4297 25.608V16.488C23.5897 16.264 23.8937 16.152 24.3417 16.152C25.1737 16.152 25.5897 16.752 25.5897 17.952C26.2617 16.752 27.3257 16.152 28.7817 16.152C29.8217 16.152 30.6457 16.48 31.2537 17.136C31.8777 17.792 32.1897 18.736 32.1897 19.968V23.376C32.1897 24.288 32.3337 24.976 32.6217 25.44C32.9097 25.904 33.3337 26.136 33.8937 26.136C34.4697 26.136 34.9737 25.784 35.4057 25.08C35.8377 24.36 36.0537 23.152 36.0537 21.456C36.0697 21.36 36.1897 21.312 36.4137 21.312ZM48.9254 21.312C49.2134 21.312 49.3574 21.736 49.3574 22.584C49.3574 23.912 49.0534 24.992 48.4454 25.824C47.8374 26.656 46.9974 27.072 45.9254 27.072C44.8534 27.072 43.9414 26.72 43.1894 26.016C42.4374 25.296 41.9654 24.432 41.7734 23.424C40.7014 23.872 39.5414 24.128 38.2934 24.192V26.736C38.1334 26.96 37.8534 27.072 37.4534 27.072C37.0534 27.072 36.7334 26.952 36.4934 26.712C36.2534 26.456 36.1334 26.088 36.1334 25.608V13.584C36.1334 11.504 36.3334 10 36.7334 9.072C37.1334 8.128 37.9014 7.656 39.0374 7.656C39.6454 7.656 40.1174 7.912 40.4534 8.424C40.7894 8.936 40.9574 9.664 40.9574 10.608C40.9574 12.32 40.0694 14.064 38.2934 15.84V18.144C39.0134 16.816 40.1654 16.152 41.7494 16.152C42.7574 16.152 43.5654 16.416 44.1734 16.944C44.7974 17.472 45.1094 18.192 45.1094 19.104C45.1094 20.336 44.5814 21.416 43.5254 22.344C43.6054 23.32 43.9014 24.2 44.4134 24.984C44.9254 25.752 45.5734 26.136 46.3574 26.136C46.9654 26.136 47.4854 25.76 47.9174 25.008C48.3494 24.24 48.5654 23.056 48.5654 21.456C48.5814 21.36 48.7014 21.312 48.9254 21.312ZM42.9974 19.128C42.9974 18.456 42.8534 17.936 42.5654 17.568C42.2774 17.184 41.9094 16.992 41.4614 16.992C40.5814 16.992 39.8294 17.464 39.2054 18.408C38.5974 19.352 38.2934 20.968 38.2934 23.256C39.6694 23.112 40.7974 22.64 41.6774 21.84C42.5574 21.024 42.9974 20.12 42.9974 19.128ZM38.2934 14.688C39.3814 13.28 39.9254 11.912 39.9254 10.584C39.9254 9.256 39.6374 8.592 39.0614 8.592C38.7414 8.592 38.5334 8.96 38.4374 9.696C38.3414 10.432 38.2934 12.096 38.2934 14.688ZM48.625 17.616C48.625 17.136 48.745 16.776 48.985 16.536C49.225 16.28 49.529 16.152 49.897 16.152C50.265 16.152 50.561 16.264 50.785 16.488V23.376C50.785 25.28 51.265 26.232 52.225 26.232C53.089 26.232 53.793 25.776 54.337 24.864C54.897 23.952 55.177 22.416 55.177 20.256V17.616C55.177 17.136 55.297 16.776 55.537 16.536C55.777 16.28 56.081 16.152 56.449 16.152C56.817 16.152 57.113 16.264 57.337 16.488V28.68C57.529 28.664 57.833 28.656 58.249 28.656C58.665 28.656 58.873 28.832 58.873 29.184L58.729 29.544C58.121 29.544 57.657 29.552 57.337 29.568V30.768C57.337 32.416 56.961 33.712 56.209 34.656C55.473 35.616 54.481 36.096 53.233 36.096C52.497 36.096 51.841 35.872 51.265 35.424C50.705 34.992 50.425 34.304 50.425 33.36C50.425 32.144 50.857 31.176 51.721 30.456C52.585 29.736 53.737 29.232 55.177 28.944V25.2C54.505 26.448 53.425 27.072 51.937 27.072C50.913 27.072 50.105 26.744 49.513 26.088C48.921 25.432 48.625 24.488 48.625 23.256V17.616ZM51.649 33.432C51.649 33.992 51.801 34.416 52.105 34.704C52.409 35.008 52.777 35.16 53.209 35.16C53.641 35.16 53.993 35.032 54.265 34.776C54.873 34.232 55.177 32.592 55.177 29.856C52.825 30.384 51.649 31.576 51.649 33.432ZM62.4323 10.896C62.2243 10.896 62.0403 10.856 61.8803 10.776C61.7363 10.68 61.6643 10.56 61.6643 10.416C61.6643 10.256 61.7203 10.136 61.8323 10.056C62.2803 10.056 62.6323 9.912 62.8883 9.624C63.1443 9.32 63.2723 8.992 63.2723 8.64C63.2723 8.272 63.2483 7.992 63.2003 7.8C62.9923 8.088 62.7043 8.232 62.3363 8.232C61.9843 8.232 61.6963 8.12 61.4723 7.896C61.2643 7.672 61.1603 7.408 61.1603 7.104C61.1603 6.784 61.2723 6.512 61.4963 6.288C61.7203 6.064 61.9923 5.952 62.3123 5.952C62.8883 5.952 63.3523 6.152 63.7043 6.552C64.0563 6.952 64.2323 7.536 64.2323 8.304C64.2323 9.056 64.0563 9.68 63.7043 10.176C63.3523 10.656 62.9283 10.896 62.4323 10.896ZM69.5181 22.176C68.8781 21.952 68.2381 21.72 67.5981 21.48C66.9741 21.224 66.4461 20.864 66.0141 20.4C65.5821 19.936 65.3661 19.344 65.3661 18.624C65.3661 17.888 65.7021 17.296 66.3741 16.848C67.0461 16.384 68.0221 16.152 69.3021 16.152C70.5981 16.152 71.6061 16.376 72.3261 16.824C73.0621 17.272 73.4301 17.792 73.4301 18.384C73.4301 18.672 73.3181 18.904 73.0941 19.08C72.8861 19.256 72.6781 19.344 72.4701 19.344C72.0701 19.344 71.8061 19.248 71.6781 19.056C71.7741 18.944 71.8221 18.728 71.8221 18.408C71.8221 18.072 71.5741 17.768 71.0781 17.496C70.5821 17.224 70.0301 17.088 69.4221 17.088C68.8141 17.088 68.3101 17.2 67.9101 17.424C67.5101 17.648 67.3101 17.992 67.3101 18.456C67.3101 18.904 67.5341 19.296 67.9821 19.632C68.4461 19.968 68.9981 20.248 69.6381 20.472C70.2941 20.696 70.9421 20.936 71.5821 21.192C72.2381 21.448 72.7901 21.816 73.2381 22.296C73.7021 22.76 73.9341 23.336 73.9341 24.024C73.9341 25.048 73.4861 25.816 72.5901 26.328C71.7101 26.824 70.5421 27.072 69.0861 27.072C67.6461 27.072 66.4701 26.656 65.5581 25.824C64.6621 24.976 64.2141 23.928 64.2141 22.68C64.2141 22.232 64.3021 21.88 64.4781 21.624C64.6541 21.368 64.8541 21.24 65.0781 21.24C65.4941 21.24 65.7341 21.312 65.7981 21.456L65.8461 21.528C65.7501 21.768 65.7021 22.064 65.7021 22.416C65.7021 23.488 66.0141 24.376 66.6381 25.08C67.2621 25.784 68.1261 26.136 69.2301 26.136C70.9261 26.136 71.7821 25.536 71.7981 24.336C71.7981 23.424 71.0381 22.704 69.5181 22.176Z" fill="#E7357B"/>
</svg>
