<svg width="45" height="40" viewBox="0 0 45 40" fill="none" xmlns="http://www.w3.org/2000/svg">
<g clip-path="url(#clip0_169_791)">
<path d="M19.5 30C20.0523 30 20.5 29.5523 20.5 29C20.5 28.4477 20.0523 28 19.5 28C18.9477 28 18.5 28.4477 18.5 29C18.5 29.5523 18.9477 30 19.5 30Z" stroke="#E7357B" stroke-width="2" stroke-linecap="round" stroke-linejoin="round"/>
<path d="M30.5 30C31.0523 30 31.5 29.5523 31.5 29C31.5 28.4477 31.0523 28 30.5 28C29.9477 28 29.5 28.4477 29.5 29C29.5 29.5523 29.9477 30 30.5 30Z" stroke="#E7357B" stroke-width="2" stroke-linecap="round" stroke-linejoin="round"/>
<path d="M11.5 9H15.5L18.18 22.39C18.2714 22.8504 18.5219 23.264 18.8875 23.5583C19.2532 23.8526 19.7107 24.009 20.18 24H29.9C30.3693 24.009 30.8268 23.8526 31.1925 23.5583C31.5581 23.264 31.8086 22.8504 31.9 22.39L33.5 14H16.5" stroke="#E7357B" stroke-width="2" stroke-linecap="round" stroke-linejoin="round"/>
</g>
<defs>
<clipPath id="clip0_169_791">
<rect width="24" height="24" fill="white" transform="translate(10.5 8)"/>
</clipPath>
</defs>
</svg>
